<svg xmlns="http://www.w3.org/2000/svg" width="410.667" height="405.333" viewBox="0 0 410.667 405.333"><path d="M1620 2865h1160c66.27 0 120-53.73 120-120V1585c0-66.27-53.73-120-120-120H1620c-66.27 0-120 53.73-120 120v1160c0 66.27 53.73 120 120 120M274.609 2865h640c49.707 0 90.001-40.29 90.001-90V1555c0-49.71-40.294-90-90.001-90h-640c-49.707 0-90 40.29-90 90v1220c0 49.71 40.293 90 90 90M1590 1004.41h1220c49.71 0 90-40.293 90-89.996v-640c0-49.707-40.29-90-90-90H1590c-49.71 0-90 40.293-90 90v640c0 49.703 40.29 89.996 90 89.996M274.609 1004.41h640c49.707 0 90.001-40.293 90.001-89.996v-640c0-49.707-40.294-90-90.001-90h-640c-49.707 0-90 40.293-90 90v640c0 49.703 40.293 89.996 90 89.996" style="fill:none;stroke:black;stroke-width:350;stroke-linecap:round;stroke-linejoin:round;stroke-miterlimit:10;stroke-dasharray:none;stroke-opacity:1" transform="matrix(.13333 0 0 -.13333 0 405.333)"/></svg>